#define larrow_width 16
#define larrow_height 16
static char larrow_bits[] = {
   0x80, 0x00, 0xc0, 0x00, 0xe0, 0x00, 0xf0, 0x07, 0xf8, 0x07, 0xfc, 0x07,
   0xfe, 0x07, 0xff, 0x07, 0xff, 0x07, 0xfe, 0x07, 0xfc, 0x07, 0xf8, 0x07,
   0xf0, 0x07, 0xe0, 0x00, 0xc0, 0x00, 0x80, 0x00};
