#define rarrow_width 16
#define rarrow_height 16
static char rarrow_bits[] = {
   0x00, 0x01, 0x00, 0x03, 0x00, 0x07, 0xe0, 0x0f, 0xe0, 0x1f, 0xe0, 0x3f,
   0xe0, 0x7f, 0xe0, 0xff, 0xe0, 0xff, 0xe0, 0x7f, 0xe0, 0x3f, 0xe0, 0x1f,
   0xe0, 0x0f, 0x00, 0x07, 0x00, 0x03, 0x00, 0x01};
